<svg width="21" height="21" viewBox="0 0 21 21" fill="none" xmlns="http://www.w3.org/2000/svg">
<path d="M10.5439 0.5H10.5459C11.853 0.496069 13.1481 0.750499 14.3564 1.24902C15.5649 1.74759 16.6628 2.48069 17.5869 3.40527L17.5889 3.40723C18.5141 4.32328 19.2483 5.41396 19.748 6.61621C20.2479 7.81867 20.5033 9.10894 20.5 10.4111V10.4121C20.4973 15.872 16.0323 20.3184 10.5439 20.3184H10.54C8.8783 20.3189 7.24237 19.9048 5.78125 19.1133L5.60742 19.0195L5.41699 19.0693L0.711914 20.2969L1.96582 15.7422L2.02148 15.54L1.91602 15.3584C1.0436 13.8543 0.58551 12.146 0.587891 10.4072V10.4062C0.590245 4.94613 5.05522 0.500054 10.5439 0.5ZM7.31836 6.1084C7.34853 6.10989 7.37838 6.10852 7.39746 6.1084C7.4024 6.11584 7.40866 6.12461 7.41504 6.13574L7.46973 6.24805C7.57807 6.50748 7.76191 6.95508 7.92871 7.3584C8.08804 7.74364 8.24545 8.12285 8.28906 8.20996C8.29442 8.22063 8.29804 8.22967 8.30078 8.23633C8.21121 8.41624 8.19533 8.45809 8.11719 8.54883C8.03545 8.64375 7.96934 8.72544 7.91113 8.7959L7.75293 8.97559C7.70041 9.02753 7.54857 9.16933 7.47266 9.37305C7.37907 9.6246 7.4225 9.8818 7.55859 10.1143C7.71926 10.3886 8.27531 11.2939 9.11133 12.0361C10.1737 12.9792 11.1096 13.2948 11.3213 13.4004C11.483 13.4811 11.693 13.5595 11.9268 13.5322C12.1827 13.5023 12.3635 13.3598 12.4883 13.2158C12.623 13.0604 13.1003 12.5033 13.3174 12.1953C13.3286 12.1992 13.341 12.2031 13.3545 12.208C13.4439 12.2406 13.7957 12.4047 14.1934 12.5957C14.5755 12.7793 14.9601 12.9685 15.0879 13.0322H15.0889C15.1576 13.0663 15.2227 13.0976 15.2734 13.1221C15.3016 13.1356 15.3251 13.1479 15.3457 13.1582C15.3453 13.191 15.3477 13.2303 15.3438 13.2754C15.3283 13.4529 15.2824 13.6932 15.1885 13.9561C15.1382 14.0968 14.9438 14.311 14.6152 14.5205C14.3779 14.6718 14.139 14.7779 13.9678 14.8311L13.8223 14.8662C13.4141 14.927 12.928 14.9476 12.4014 14.7812L12.3984 14.7803L12.0322 14.6621C11.6687 14.5392 11.3098 14.4021 10.957 14.251H10.958C8.48557 13.1883 6.85246 10.6922 6.69824 10.4854C6.63738 10.4038 6.39177 10.0779 6.16113 9.62598C5.92694 9.16704 5.73055 8.62065 5.73047 8.09473C5.73047 7.02539 6.27606 6.5222 6.51367 6.26367L6.52051 6.25586C6.56248 6.20833 6.61345 6.16944 6.6709 6.14258C6.72777 6.11602 6.78982 6.10156 6.85254 6.09961L7.31836 6.1084ZM19.7344 10.4121C19.7296 7.97994 18.7591 5.64926 17.0361 3.93262C15.4207 2.32319 13.268 1.37689 11.001 1.26855L10.5469 1.25781C5.47988 1.25806 1.35308 5.35866 1.35254 10.4053C1.35068 12.1288 1.8384 13.8182 2.75879 15.2754V15.2744L2.84766 15.415L2.02832 18.3955L1.79883 19.2305L2.63672 19.0117L5.72461 18.2051L5.86328 18.2871C7.28033 19.1222 8.89525 19.5629 10.54 19.5625H10.5439C15.6081 19.5625 19.7324 15.4602 19.7344 10.4131V10.4121Z" fill="#0F6CCA" stroke="#0F6CCA"/>
</svg>
