<svg width="19" height="21" viewBox="0 0 19 21" fill="none" xmlns="http://www.w3.org/2000/svg">
<path fill-rule="evenodd" clip-rule="evenodd" d="M16.2318 3.0516C15.3535 2.08039 14.3101 1.31077 13.1616 0.787055C12.0131 0.26334 10.7822 -0.004128 9.53985 4.81591e-05C4.32589 4.81591e-05 0.0814284 4.66785 0.0793079 10.4063C0.0770013 12.2335 0.512785 14.0288 1.3423 15.6094L0 21L5.01506 19.553C6.40325 20.3842 7.95722 20.8192 9.53603 20.8186H9.53985C14.7534 20.8186 18.9974 16.1503 19 10.4124C19.0031 9.04388 18.76 7.68837 18.2848 6.42469C17.8096 5.16102 17.1117 4.01441 16.2318 3.0516ZM9.53985 19.0622H9.53646C8.12901 19.0627 6.74715 18.6463 5.53459 17.8566L5.24747 17.6691L2.27151 18.5278L3.06587 15.3361L2.87883 15.008C2.09186 13.6309 1.6749 12.0351 1.67649 10.4063C1.67649 5.63769 5.20548 1.75786 9.54282 1.75786C11.6235 1.75375 13.6204 2.66326 15.0944 4.28635C16.5684 5.90943 17.3987 8.11316 17.4028 10.4128C17.4011 15.1819 13.8738 19.0622 9.53985 19.0622ZM13.8526 12.5846C13.6164 12.4542 12.453 11.8252 12.2376 11.7385C12.0221 11.6517 11.8631 11.6081 11.7058 11.8688C11.5484 12.1294 11.095 12.7125 10.9572 12.8883C10.8194 13.0641 10.6815 13.0833 10.4453 12.953C10.2091 12.8227 9.44697 12.5485 8.54405 11.6625C7.84131 10.973 7.36715 10.1217 7.22932 9.86159C7.09148 9.60143 7.21448 9.46034 7.3328 9.33096C7.43925 9.21424 7.56903 9.02721 7.68735 8.87534C7.80568 8.72346 7.84512 8.61471 7.92358 8.44128C8.00204 8.26784 7.96302 8.11597 7.90407 7.98612C7.84512 7.85628 7.37224 6.57613 7.17546 6.05535C6.98334 5.54816 6.78867 5.61707 6.64363 5.6091C6.50579 5.6016 6.34675 5.59972 6.19026 5.59972C6.07062 5.60317 5.95291 5.63383 5.84448 5.6898C5.73605 5.74577 5.63922 5.82585 5.56004 5.92503C5.34332 6.18566 4.7326 6.81566 4.7326 8.0944C4.7326 9.37315 5.58082 10.6106 5.69787 10.7841C5.81492 10.9575 7.36461 13.5839 9.73579 14.7103C10.1761 14.9187 10.626 15.1015 11.0836 15.2578C11.6498 15.4556 12.1651 15.428 12.5722 15.361C13.0264 15.2864 13.9718 14.7319 14.1681 14.1244C14.3645 13.5169 14.3649 12.9966 14.306 12.8883C14.247 12.78 14.0892 12.7144 13.8526 12.5846Z" fill="white"/>
</svg>
